<?xml version="1.0" standalone="no"?>
<!DOCTYPE svg PUBLIC "-//W3C//DTD SVG 20010904//EN"
 "http://www.w3.org/TR/2001/REC-SVG-20010904/DTD/svg10.dtd">
<svg version="1.0" xmlns="http://www.w3.org/2000/svg"
 width="629.000000pt" height="629.000000pt" viewBox="0 0 629.000000 629.000000"
 preserveAspectRatio="xMidYMid meet">

<g transform="translate(0.000000,629.000000) scale(0.100000,-0.100000)"
fill="#000000" stroke="none">
<path d="M2320 5570 c-123 -11 -264 -31 -282 -41 -10 -5 -25 -9 -33 -9 -22 0
-118 -31 -129 -41 -6 -5 -18 -9 -29 -9 -23 0 -161 -59 -165 -71 -2 -5 -15 -9
-28 -9 -13 0 -24 -4 -24 -9 0 -5 -8 -12 -17 -15 -21 -8 -48 -23 -90 -53 -17
-13 -34 -23 -38 -23 -3 0 -13 -6 -21 -12 -8 -7 -59 -49 -113 -93 -54 -44 -112
-99 -129 -121 -18 -23 -45 -55 -60 -71 -15 -16 -31 -36 -37 -45 -45 -70 -97
-146 -110 -163 -8 -10 -15 -27 -15 -36 0 -10 -4 -21 -10 -24 -5 -3 -17 -23
-26 -43 -8 -20 -20 -44 -25 -52 -10 -17 -11 -19 -28 -71 -6 -19 -11 -43 -11
-52 0 -9 -4 -17 -10 -17 -5 0 -12 -17 -16 -37 -3 -21 -15 -72 -26 -113 -33
-127 -38 -352 -37 -1890 0 -1211 2 -1478 13 -1492 12 -16 38 -18 291 -18 253
0 279 2 291 18 11 14 14 297 14 1582 1 861 5 1585 10 1610 16 84 49 203 60
214 5 5 10 18 10 28 0 10 11 36 25 58 14 22 25 44 25 48 0 5 9 19 19 31 11 12
36 47 57 77 20 30 41 54 46 54 4 0 8 5 8 12 0 15 66 77 140 132 30 23 61 47
68 54 7 6 20 12 28 12 8 0 14 5 14 10 0 6 7 10 15 10 8 0 15 5 15 10 0 6 9 10
21 10 12 0 35 6 52 14 110 50 169 65 319 81 166 18 198 15 198 -15 0 -10 -29
-61 -65 -115 -36 -53 -70 -108 -76 -122 -5 -14 -18 -38 -29 -53 -11 -16 -20
-36 -20 -46 0 -9 -6 -25 -13 -33 -15 -18 -56 -136 -68 -196 -4 -22 -15 -67
-24 -100 -29 -101 -33 -312 -34 -1862 -1 -1343 1 -1493 15 -1507 13 -14 54
-16 288 -16 250 0 274 1 289 18 15 17 17 154 19 1625 2 1268 6 1609 16 1619 6
6 12 24 12 38 0 14 9 50 21 80 11 30 24 66 29 80 13 41 62 130 71 130 5 0 9 7
9 15 0 8 5 15 10 15 6 0 10 4 10 10 0 10 21 39 58 77 12 13 22 28 22 33 0 4
19 25 42 44 54 46 86 47 130 3 46 -47 78 -84 78 -91 0 -3 8 -14 18 -24 27 -29
52 -62 52 -68 0 -3 11 -20 25 -38 14 -18 28 -47 31 -64 4 -18 9 -32 13 -32 15
0 45 -103 72 -245 17 -95 18 -178 19 -1642 0 -1445 1 -1544 17 -1563 17 -19
29 -20 288 -20 271 0 272 0 293 23 l22 23 0 1464 c0 1462 -2 1565 -36 1776 -8
49 -14 107 -14 126 0 20 -4 39 -9 42 -5 3 -17 37 -26 76 -9 38 -21 70 -26 70
-5 0 -9 9 -9 20 0 27 -30 100 -41 100 -5 0 -9 8 -10 18 0 9 -16 44 -34 77 -19
33 -39 69 -44 80 -5 11 -18 29 -30 39 -11 11 -21 23 -21 28 0 5 -11 24 -25 42
-57 75 -24 85 200 57 154 -18 266 -48 297 -79 7 -7 22 -12 35 -12 21 0 59 -16
73 -30 3 -3 25 -18 50 -34 25 -16 49 -35 53 -43 4 -7 13 -13 19 -13 17 0 102
-79 133 -124 11 -16 29 -39 40 -51 38 -44 50 -61 69 -98 11 -20 22 -37 26 -37
4 0 11 -16 14 -35 4 -19 10 -35 15 -35 4 0 13 -19 20 -42 7 -24 19 -61 26 -83
38 -112 38 -112 42 -1730 3 -1436 5 -1581 20 -1597 15 -16 40 -18 290 -18 261
0 274 1 293 20 20 20 20 26 16 1538 -2 899 -8 1552 -13 1602 -18 151 -35 265
-44 285 -4 11 -16 47 -25 80 -9 33 -20 65 -24 70 -4 6 -10 24 -14 40 -10 41
-29 85 -38 85 -5 0 -8 7 -8 16 0 8 -14 41 -32 72 -17 31 -38 69 -45 83 -7 14
-22 34 -33 44 -11 10 -20 22 -20 27 0 12 -46 72 -90 118 -77 81 -141 146 -163
165 -31 29 -135 105 -142 105 -4 0 -21 10 -38 23 -48 33 -68 45 -112 68 -22
11 -47 24 -55 28 -31 18 -138 61 -152 61 -8 0 -28 6 -44 14 -16 8 -51 20 -79
27 -27 6 -57 14 -65 17 -31 12 -180 32 -315 43 -104 8 -176 8 -280 0 -166 -14
-310 -33 -321 -43 -4 -5 -22 -8 -40 -8 -18 0 -36 -4 -39 -10 -3 -5 -14 -10
-23 -10 -9 0 -30 -7 -46 -15 -37 -20 -163 -20 -202 -1 -132 66 -515 109 -774
86z"/>
</g>
</svg>
